<svg xmlns="http://www.w3.org/2000/svg" xmlns:xlink="http://www.w3.org/1999/xlink" viewBox="0 0 1527.65 1527.65">
    <defs>
        <style>
            .cls-1,.cls-4{fill:none;}.cls-2{opacity:0.5;}.cls-3{clip-path:url(#clip-path);}.cls-4{stroke:#e81473;stroke-miterlimit:10;stroke-width:0.52px;}
        </style>
        <clipPath id="clip-path" transform="translate(231.13 739.63)">
            <rect class="cls-1" width="933" height="234"/>
        </clipPath>
    </defs>
    <g id="Layer_2">
        <g id="Слой_2">
            <g class="cls-2">
                <g class="cls-3">
                    <line class="cls-4" x1="913.01" y1="39.07" x2="39.07" y2="913.01"/>
                    <line class="cls-4" x1="905.23" y1="31.3" x2="31.3" y2="905.23"/>
                    <line class="cls-4" x1="889.68" y1="15.74" x2="15.74" y2="889.68"/>
                    <line class="cls-4" x1="897.46" y1="23.52" x2="23.52" y2="897.46"/>
                    <line class="cls-4" x1="920.79" y1="46.85" x2="46.85" y2="920.79"/>
                    <line class="cls-4" x1="881.9" y1="7.96" x2="7.96" y2="881.9"/>
                    <line class="cls-4" x1="874.12" y1="0.18" x2="0.18" y2="874.12"/>
                    <line class="cls-4" x1="968.16" y1="94.23" x2="94.23" y2="968.16"/>
                    <line class="cls-4" x1="960.39" y1="86.45" x2="86.45" y2="960.39"/>
                    <line class="cls-4" x1="944.83" y1="70.89" x2="70.89" y2="944.83"/>
                    <line class="cls-4" x1="952.61" y1="78.67" x2="78.67" y2="952.61"/>
                    <line class="cls-4" x1="975.94" y1="102" x2="102" y2="975.94"/>
                    <line class="cls-4" x1="937.05" y1="63.11" x2="63.11" y2="937.05"/>
                    <line class="cls-4" x1="929.27" y1="55.34" x2="55.34" y2="929.27"/>
                    <line class="cls-4" x1="1023.32" y1="149.38" x2="149.38" y2="1023.32"/>
                    <line class="cls-4" x1="1015.54" y1="141.6" x2="141.6" y2="1015.54"/>
                    <line class="cls-4" x1="999.98" y1="126.04" x2="126.04" y2="999.98"/>
                    <line class="cls-4" x1="1007.76" y1="133.82" x2="133.82" y2="1007.76"/>
                    <line class="cls-4" x1="1031.09" y1="157.16" x2="157.16" y2="1031.09"/>
                    <line class="cls-4" x1="992.2" y1="118.27" x2="118.27" y2="992.2"/>
                    <line class="cls-4" x1="984.43" y1="110.49" x2="110.49" y2="984.43"/>
                    <line class="cls-4" x1="1078.47" y1="204.53" x2="204.53" y2="1078.47"/>
                    <line class="cls-4" x1="1070.69" y1="196.75" x2="196.75" y2="1070.69"/>
                    <line class="cls-4" x1="1055.13" y1="181.2" x2="181.2" y2="1055.13"/>
                    <line class="cls-4" x1="1062.91" y1="188.97" x2="188.97" y2="1062.91"/>
                    <line class="cls-4" x1="1086.25" y1="212.31" x2="212.31" y2="1086.25"/>
                    <line class="cls-4" x1="1047.36" y1="173.42" x2="173.42" y2="1047.36"/>
                    <line class="cls-4" x1="1039.58" y1="165.64" x2="165.64" y2="1039.58"/>
                    <line class="cls-4" x1="1188.77" y1="314.83" x2="314.83" y2="1188.77"/>
                    <line class="cls-4" x1="1180.99" y1="307.06" x2="307.06" y2="1180.99"/>
                    <line class="cls-4" x1="1165.44" y1="291.5" x2="291.5" y2="1165.44"/>
                    <line class="cls-4" x1="1173.22" y1="299.28" x2="299.28" y2="1173.22"/>
                    <line class="cls-4" x1="1196.55" y1="322.61" x2="322.61" y2="1196.55"/>
                    <line class="cls-4" x1="1157.66" y1="283.72" x2="283.72" y2="1157.66"/>
                    <line class="cls-4" x1="1149.88" y1="275.94" x2="275.94" y2="1149.88"/>
                    <line class="cls-4" x1="1243.92" y1="369.99" x2="369.99" y2="1243.92"/>
                    <line class="cls-4" x1="1236.15" y1="362.21" x2="362.21" y2="1236.15"/>
                    <line class="cls-4" x1="1220.59" y1="346.65" x2="346.65" y2="1220.59"/>
                    <line class="cls-4" x1="1228.37" y1="354.43" x2="354.43" y2="1228.37"/>
                    <line class="cls-4" x1="1251.7" y1="377.76" x2="377.76" y2="1251.7"/>
                    <line class="cls-4" x1="1212.81" y1="338.87" x2="338.87" y2="1212.81"/>
                    <line class="cls-4" x1="1205.03" y1="331.1" x2="331.1" y2="1205.03"/>
                    <line class="cls-4" x1="1299.08" y1="425.14" x2="425.14" y2="1299.08"/>
                    <line class="cls-4" x1="1291.3" y1="417.36" x2="417.36" y2="1291.3"/>
                    <line class="cls-4" x1="1275.74" y1="401.8" x2="401.8" y2="1275.74"/>
                    <line class="cls-4" x1="1283.52" y1="409.58" x2="409.58" y2="1283.52"/>
                    <line class="cls-4" x1="1306.85" y1="432.92" x2="432.92" y2="1306.86"/>
                    <line class="cls-4" x1="1267.96" y1="394.03" x2="394.03" y2="1267.96"/>
                    <line class="cls-4" x1="1260.19" y1="386.25" x2="386.25" y2="1260.19"/>
                    <line class="cls-4" x1="1354.23" y1="480.29" x2="480.29" y2="1354.23"/>
                    <line class="cls-4" x1="1346.45" y1="472.51" x2="472.51" y2="1346.45"/>
                    <line class="cls-4" x1="1330.89" y1="456.96" x2="456.96" y2="1330.89"/>
                    <line class="cls-4" x1="1338.67" y1="464.73" x2="464.73" y2="1338.67"/>
                    <line class="cls-4" x1="1362.01" y1="488.07" x2="488.07" y2="1362.01"/>
                    <line class="cls-4" x1="1323.12" y1="449.18" x2="449.18" y2="1323.12"/>
                    <line class="cls-4" x1="1315.34" y1="441.4" x2="441.4" y2="1315.34"/>
                    <line class="cls-4" x1="1409.38" y1="535.44" x2="535.44" y2="1409.38"/>
                    <line class="cls-4" x1="1401.6" y1="527.66" x2="527.66" y2="1401.6"/>
                    <line class="cls-4" x1="1386.05" y1="512.11" x2="512.11" y2="1386.05"/>
                    <line class="cls-4" x1="1393.82" y1="519.89" x2="519.89" y2="1393.82"/>
                    <line class="cls-4" x1="1417.16" y1="543.22" x2="543.22" y2="1417.16"/>
                    <line class="cls-4" x1="1378.27" y1="504.33" x2="504.33" y2="1378.27"/>
                    <line class="cls-4" x1="1370.49" y1="496.55" x2="496.55" y2="1370.49"/>
                    <line class="cls-4" x1="1464.53" y1="590.6" x2="590.59" y2="1464.53"/>
                    <line class="cls-4" x1="1456.75" y1="582.82" x2="582.82" y2="1456.76"/>
                    <line class="cls-4" x1="1441.2" y1="567.26" x2="567.26" y2="1441.2"/>
                    <line class="cls-4" x1="1448.98" y1="575.04" x2="575.04" y2="1448.98"/>
                    <line class="cls-4" x1="1472.31" y1="598.37" x2="598.37" y2="1472.31"/>
                    <line class="cls-4" x1="1433.42" y1="559.48" x2="559.48" y2="1433.42"/>
                    <line class="cls-4" x1="1425.64" y1="551.7" x2="551.7" y2="1425.64"/>
                    <line class="cls-4" x1="1519.68" y1="645.75" x2="645.75" y2="1519.69"/>
                    <line class="cls-4" x1="1511.91" y1="637.97" x2="637.97" y2="1511.91"/>
                    <line class="cls-4" x1="1496.35" y1="622.41" x2="622.41" y2="1496.35"/>
                    <line class="cls-4" x1="1504.13" y1="630.19" x2="630.19" y2="1504.13"/>
                    <line class="cls-4" x1="1527.46" y1="653.53" x2="653.52" y2="1527.46"/>
                    <line class="cls-4" x1="1488.57" y1="614.63" x2="614.63" y2="1488.57"/>
                    <line class="cls-4" x1="1480.79" y1="606.86" x2="606.86" y2="1480.79"/>
                    <line class="cls-4" x1="1133.62" y1="259.68" x2="259.68" y2="1133.62"/>
                    <line class="cls-4" x1="1125.84" y1="251.9" x2="251.9" y2="1125.84"/>
                    <line class="cls-4" x1="1110.29" y1="236.35" x2="236.35" y2="1110.29"/>
                    <line class="cls-4" x1="1118.06" y1="244.13" x2="244.13" y2="1118.06"/>
                    <line class="cls-4" x1="1141.4" y1="267.46" x2="267.46" y2="1141.4"/>
                    <line class="cls-4" x1="1102.51" y1="228.57" x2="228.57" y2="1102.51"/>
                    <line class="cls-4" x1="1094.73" y1="220.79" x2="220.79" y2="1094.73"/>
                </g>
            </g>
        </g>
    </g>
</svg>
